<svg width="16" height="16" viewBox="0 0 16 16" fill="none" xmlns="http://www.w3.org/2000/svg">
<g clip-path="url(#clip0_1_1280)">
<path d="M8.84 2.00001C5.44667 1.90667 2.66667 4.63334 2.66667 8.00001H1.47333C1.17333 8.00001 1.02667 8.36001 1.24 8.56667L3.1 10.4333C3.23333 10.5667 3.44 10.5667 3.57333 10.4333L5.43333 8.56667C5.64 8.36001 5.49333 8.00001 5.19333 8.00001H4C4 5.40001 6.12 3.30001 8.73333 3.33334C11.2133 3.36667 13.3 5.45334 13.3333 7.93334C13.3667 10.54 11.2667 12.6667 8.66667 12.6667C7.59333 12.6667 6.6 12.3 5.81333 11.68C5.54667 11.4733 5.17333 11.4933 4.93333 11.7333C4.65333 12.0133 4.67333 12.4867 4.98667 12.7267C6 13.5267 7.27333 14 8.66667 14C12.0333 14 14.76 11.22 14.6667 7.82667C14.58 4.70001 11.9667 2.08667 8.84 2.00001ZM8.5 5.33334C8.22667 5.33334 8 5.56001 8 5.83334V8.28667C8 8.52001 8.12666 8.74001 8.32666 8.86001L10.4067 10.0933C10.6467 10.2333 10.9533 10.1533 11.0933 9.92001C11.2333 9.68001 11.1533 9.37334 10.92 9.23334L9 8.09334V5.82667C9 5.56001 8.77333 5.33334 8.5 5.33334Z" fill="black"/>
</g>
<defs>
<clipPath id="clip0_1_1280">
<rect width="16" height="16" fill="white"/>
</clipPath>
</defs>
</svg>
